<svg width="28" height="28" viewBox="0 0 28 28" fill="none" xmlns="http://www.w3.org/2000/svg">
<path d="M22.1667 3.5H5.83333C4.54467 3.5 3.5 4.54467 3.5 5.83333V22.1667C3.5 23.4553 4.54467 24.5 5.83333 24.5H22.1667C23.4553 24.5 24.5 23.4553 24.5 22.1667V5.83333C24.5 4.54467 23.4553 3.5 22.1667 3.5Z" stroke="#C8A44F" stroke-width="2.33333" stroke-linecap="round" stroke-linejoin="round"/>
<path d="M10.5003 12.8337C11.789 12.8337 12.8337 11.789 12.8337 10.5003C12.8337 9.21166 11.789 8.16699 10.5003 8.16699C9.21166 8.16699 8.16699 9.21166 8.16699 10.5003C8.16699 11.789 9.21166 12.8337 10.5003 12.8337Z" stroke="#C8A44F" stroke-width="2.33333" stroke-linecap="round" stroke-linejoin="round"/>
<path d="M24.5 17.5003L20.8997 13.9C20.4621 13.4625 19.8687 13.2168 19.25 13.2168C18.6313 13.2168 18.0379 13.4625 17.6003 13.9L7 24.5003" stroke="#C8A44F" stroke-width="2.33333" stroke-linecap="round" stroke-linejoin="round"/>
</svg>
