<svg width="28" height="28" viewBox="0 0 28 28" fill="none" xmlns="http://www.w3.org/2000/svg">
<path d="M13.4457 2.67705C13.4968 2.57375 13.5758 2.4868 13.6737 2.42601C13.7716 2.36522 13.8846 2.33301 13.9998 2.33301C14.1151 2.33301 14.228 2.36522 14.326 2.42601C14.4239 2.4868 14.5029 2.57375 14.554 2.67705L17.249 8.13588C17.4265 8.49518 17.6886 8.80603 18.0127 9.04175C18.3368 9.27747 18.7133 9.43102 19.1098 9.48922L25.1368 10.3712C25.251 10.3878 25.3583 10.4359 25.4466 10.5103C25.5348 10.5846 25.6005 10.6822 25.6362 10.7919C25.6719 10.9017 25.6761 11.0192 25.6485 11.1312C25.6209 11.2433 25.5624 11.3453 25.4798 11.4259L21.1212 15.6702C20.8337 15.9503 20.6186 16.2961 20.4945 16.6778C20.3703 17.0595 20.3407 17.4656 20.4083 17.8612L21.4373 23.8579C21.4575 23.972 21.4451 24.0895 21.4017 24.197C21.3583 24.3045 21.2856 24.3976 21.1918 24.4657C21.098 24.5338 20.987 24.5742 20.8713 24.5823C20.7557 24.5903 20.6401 24.5657 20.5378 24.5112L15.1502 21.6786C14.7952 21.4921 14.4002 21.3948 13.9992 21.3948C13.5983 21.3948 13.2033 21.4921 12.8483 21.6786L7.46182 24.5112C7.35954 24.5654 7.24412 24.5897 7.12868 24.5815C7.01324 24.5733 6.90243 24.5329 6.80883 24.4648C6.71524 24.3967 6.64263 24.3038 6.59925 24.1965C6.55588 24.0892 6.54349 23.9719 6.56349 23.8579L7.59132 17.8624C7.65922 17.4666 7.6298 17.0602 7.50561 16.6783C7.38143 16.2964 7.1662 15.9504 6.87849 15.6702L2.51982 11.4271C2.43651 11.3466 2.37748 11.2443 2.34944 11.132C2.32141 11.0196 2.3255 10.9016 2.36125 10.7914C2.397 10.6813 2.46297 10.5834 2.55164 10.5089C2.64032 10.4344 2.74814 10.3863 2.86282 10.3701L8.88865 9.48922C9.28562 9.43147 9.66261 9.27812 9.98717 9.04237C10.3117 8.80662 10.5741 8.49553 10.7518 8.13588L13.4457 2.67705Z" stroke="#C8A44F" stroke-width="2.33333" stroke-linecap="round" stroke-linejoin="round"/>
</svg>
