<svg width="28" height="28" viewBox="0 0 28 28" fill="none" xmlns="http://www.w3.org/2000/svg">
<path d="M18.6663 23.333V4.66634C18.6663 4.0475 18.4205 3.45401 17.9829 3.01643C17.5453 2.57884 16.9518 2.33301 16.333 2.33301H11.6663C11.0475 2.33301 10.454 2.57884 10.0164 3.01643C9.57884 3.45401 9.33301 4.0475 9.33301 4.66634V23.333" stroke="#C8A44F" stroke-width="2.33333" stroke-linecap="round" stroke-linejoin="round"/>
<path d="M23.333 7H4.66634C3.37768 7 2.33301 8.04467 2.33301 9.33333V21C2.33301 22.2887 3.37768 23.3333 4.66634 23.3333H23.333C24.6217 23.3333 25.6663 22.2887 25.6663 21V9.33333C25.6663 8.04467 24.6217 7 23.333 7Z" stroke="#C8A44F" stroke-width="2.33333" stroke-linecap="round" stroke-linejoin="round"/>
</svg>
